<?xml version="1.0" encoding="UTF-8" standalone="no"?>
<!DOCTYPE svg PUBLIC "-//W3C//DTD SVG 1.1//EN" "http://www.w3.org/Graphics/SVG/1.1/DTD/svg11.dtd">
<svg width="100%" height="100%" viewBox="0 0 4678 3308" version="1.1" xmlns="http://www.w3.org/2000/svg" xmlns:xlink="http://www.w3.org/1999/xlink" xml:space="preserve" xmlns:serif="http://www.serif.com/" style="fill-rule:evenodd;clip-rule:evenodd;">
    <g transform="matrix(5.55556,0,0,5.55556,0,0)">
        <g id="CL-650">
            <g id="Layout">
                <g id="Frame" transform="matrix(1.32203,0,0,1.34559,-24.4707,1391.25)">
                    <rect x="69.326" y="-865.403" width="535.177" height="105.331" style="fill:none;stroke:black;stroke-width:0.56px;"/>
                </g>
                <g id="Button-Lower-8" serif:id="Button Lower 8" transform="matrix(1.46597,0,0,1.3699,-103.729,1410.6)">
                    <rect x="555.517" y="-802.105" width="27.07" height="20.692" style="fill:rgb(213,229,255);"/>
                </g>
                <g id="Button-Lower-7" serif:id="Button Lower 7" transform="matrix(1.46597,0,0,1.3699,-95.6897,1410.6)">
                    <rect x="489.705" y="-802.105" width="27.07" height="20.692" style="fill:rgb(213,229,255);"/>
                </g>
                <g id="Button-Lower-6" serif:id="Button Lower 6" transform="matrix(1.46597,0,0,1.3699,-86.4138,1410.6)">
                    <rect x="423.048" y="-802.105" width="27.07" height="20.692" style="fill:rgb(213,229,255);"/>
                </g>
                <g id="Button-Lower-5" serif:id="Button Lower 5" transform="matrix(1.46597,0,0,1.3699,-78.3749,1410.6)">
                    <rect x="357.236" y="-802.105" width="27.07" height="20.692" style="fill:rgb(213,229,255);"/>
                </g>
                <g id="Button-Lower-4" serif:id="Button Lower 4" transform="matrix(1.46597,0,0,1.3699,-69.9236,1410.6)">
                    <rect x="291.142" y="-802.105" width="27.07" height="20.692" style="fill:rgb(213,229,255);"/>
                </g>
                <g id="Button-Lower-3" serif:id="Button Lower 3" transform="matrix(1.46597,0,0,1.3699,-61.8847,1410.6)">
                    <rect x="225.33" y="-802.105" width="27.07" height="20.692" style="fill:rgb(213,229,255);"/>
                </g>
                <g id="Button-Lower-2" serif:id="Button Lower 2" transform="matrix(1.466,0,0,1.3699,-53.4401,1410.6)">
                    <rect x="159.236" y="-802.105" width="27.07" height="20.692" style="fill:rgb(213,229,255);"/>
                </g>
                <g id="Button-Lowe-1" serif:id="Button Lowe 1" transform="matrix(1.466,0,0,1.3699,-44.7748,1410.6)">
                    <rect x="92.997" y="-802.105" width="27.07" height="20.692" style="fill:rgb(213,229,255);"/>
                </g>
                <g id="Button-Upper-8" serif:id="Button Upper 8" transform="matrix(1.46597,0,0,1.3699,-103.729,1411.52)">
                    <rect x="555.517" y="-844.151" width="27.07" height="20.692" style="fill:rgb(213,229,255);"/>
                </g>
                <g id="Button-Upper-7" serif:id="Button Upper 7" transform="matrix(1.46597,0,0,1.3699,-95.6897,1411.52)">
                    <rect x="489.705" y="-844.151" width="27.07" height="20.692" style="fill:rgb(213,229,255);"/>
                </g>
                <g id="Button-Upper-6" serif:id="Button Upper 6" transform="matrix(1.46597,0,0,1.3699,-86.4138,1411.52)">
                    <rect x="423.048" y="-844.151" width="27.07" height="20.692" style="fill:rgb(213,229,255);"/>
                </g>
                <g id="Button-Upper-5" serif:id="Button Upper 5" transform="matrix(1.46597,0,0,1.3699,-78.3749,1411.52)">
                    <rect x="357.236" y="-844.151" width="27.07" height="20.692" style="fill:rgb(213,229,255);"/>
                </g>
                <g id="Button-Upper-4" serif:id="Button Upper 4" transform="matrix(1.46597,0,0,1.3699,-69.9236,1411.52)">
                    <rect x="291.142" y="-844.151" width="27.07" height="20.692" style="fill:rgb(213,229,255);"/>
                </g>
                <g id="Spacer" transform="matrix(1.80109,0,0,1.3699,-127.808,1411.51)">
                    <rect x="291.142" y="-844.151" width="27.07" height="20.692"/>
                </g>
                <g id="Spacer1" serif:id="Spacer" transform="matrix(1.80109,0,0,1.3699,-127.808,1468.2)">
                    <rect x="291.142" y="-844.151" width="27.07" height="20.692"/>
                </g>
                <g id="Spacer2" serif:id="Spacer" transform="matrix(1.80109,0,0,1.3699,-216.248,1411.52)">
                    <rect x="291.142" y="-844.151" width="27.07" height="20.692"/>
                </g>
                <g id="Spacer3" serif:id="Spacer" transform="matrix(1.80109,0,0,1.3699,-216.248,1468.2)">
                    <rect x="291.142" y="-844.151" width="27.07" height="20.692"/>
                </g>
                <g id="Spacer4" serif:id="Spacer" transform="matrix(1.80109,0,0,1.3699,-304.688,1411.52)">
                    <rect x="291.142" y="-844.151" width="27.07" height="20.692"/>
                </g>
                <g id="Spacer5" serif:id="Spacer" transform="matrix(1.80109,0,0,1.3699,-304.688,1468.2)">
                    <rect x="291.142" y="-844.151" width="27.07" height="20.692"/>
                </g>
                <g id="Spacer6" serif:id="Spacer" transform="matrix(1.80109,0,0,1.36956,-393.128,1411.22)">
                    <rect x="291.142" y="-844.151" width="27.07" height="20.692"/>
                </g>
                <g id="Spacer7" serif:id="Spacer" transform="matrix(1.80109,0,0,1.36956,-393.128,1467.91)">
                    <rect x="291.142" y="-844.151" width="27.07" height="20.692"/>
                </g>
                <g id="Spacer8" serif:id="Spacer" transform="matrix(0.900544,0,0,1.36956,-195.005,1411.22)">
                    <rect x="291.142" y="-844.151" width="27.07" height="20.692"/>
                </g>
                <g id="Spacer9" serif:id="Spacer" transform="matrix(0.900544,0,0,1.36956,-195.005,1467.91)">
                    <rect x="291.142" y="-844.151" width="27.07" height="20.692"/>
                </g>
                <g id="Spacer10" serif:id="Spacer" transform="matrix(0.900544,0,0,1.36956,488.139,1411.22)">
                    <rect x="291.142" y="-844.151" width="27.07" height="20.692"/>
                </g>
                <g id="Spacer11" serif:id="Spacer" transform="matrix(0.900544,0,0,1.36956,488.139,1467.91)">
                    <rect x="291.142" y="-844.151" width="27.07" height="20.692"/>
                </g>
                <g id="Spacer12" serif:id="Spacer" transform="matrix(1.80109,0,0,1.3699,-39.3676,1411.51)">
                    <rect x="291.142" y="-844.151" width="27.07" height="20.692"/>
                </g>
                <g id="Spacer13" serif:id="Spacer" transform="matrix(1.80109,0,0,1.3699,-39.3676,1468.2)">
                    <rect x="291.142" y="-844.151" width="27.07" height="20.692"/>
                </g>
                <g id="Spacer14" serif:id="Spacer" transform="matrix(1.80109,0,0,1.3699,49.0724,1411.52)">
                    <rect x="291.142" y="-844.151" width="27.07" height="20.692"/>
                </g>
                <g id="Spacer15" serif:id="Spacer" transform="matrix(1.80109,0,0,1.3699,49.0724,1468.2)">
                    <rect x="291.142" y="-844.151" width="27.07" height="20.692"/>
                </g>
                <g id="Spacer16" serif:id="Spacer" transform="matrix(1.80109,0,0,1.3699,137.512,1411.52)">
                    <rect x="291.142" y="-844.151" width="27.07" height="20.692"/>
                </g>
                <g id="Spacer17" serif:id="Spacer" transform="matrix(1.80109,0,0,1.3699,137.512,1468.2)">
                    <rect x="291.142" y="-844.151" width="27.07" height="20.692"/>
                </g>
                <g id="Button-Upper-3" serif:id="Button Upper 3" transform="matrix(1.46597,0,0,1.3699,-61.8847,1411.52)">
                    <rect x="225.33" y="-844.151" width="27.07" height="20.692" style="fill:rgb(213,229,255);"/>
                </g>
                <g id="Button-Upper-2" serif:id="Button Upper 2" transform="matrix(1.466,0,0,1.3699,-53.4401,1411.51)">
                    <rect x="159.236" y="-844.151" width="27.07" height="20.692" style="fill:rgb(213,229,255);"/>
                </g>
                <g id="Button-Upper-1" serif:id="Button Upper 1" transform="matrix(1.466,0,0,1.36956,-44.7748,1411.22)">
                    <rect x="92.997" y="-844.151" width="27.07" height="20.692" style="fill:rgb(213,229,255);"/>
                </g>
                <g id="Background" transform="matrix(0.843795,0,0,0.496914,48.8028,136.449)">
                    <rect x="21.78" y="181.783" width="104.813" height="28.523" style="fill:rgb(122,201,253);"/>
                </g>
                <g id="Background1" serif:id="Background" transform="matrix(0.843795,0,0,0.496914,48.8028,150.622)">
                    <rect x="21.78" y="181.783" width="104.813" height="28.523" style="fill:rgb(158,158,158);"/>
                </g>
                <g id="Background2" serif:id="Background" transform="matrix(0.843795,0,0,0.496914,48.8028,207.293)">
                    <rect x="21.78" y="181.783" width="104.813" height="28.523" style="fill:rgb(158,158,158);"/>
                </g>
                <g id="Background3" serif:id="Background" transform="matrix(0.843795,0,0,0.496914,48.8028,193.134)">
                    <rect x="21.78" y="181.783" width="104.813" height="28.523" style="fill:rgb(255,61,0);"/>
                </g>
                <g id="Background4" serif:id="Background" transform="matrix(0.843795,0,0,0.496914,48.8028,263.979)">
                    <rect x="21.78" y="181.783" width="104.813" height="28.523" style="fill:rgb(158,158,158);"/>
                </g>
                <g id="Background5" serif:id="Background" transform="matrix(0.843795,0,0,0.496914,48.8028,249.806)">
                    <rect x="21.78" y="181.783" width="104.813" height="28.523" style="fill:rgb(255,159,0);"/>
                </g>
                <g id="Background6" serif:id="Background" transform="matrix(0.843795,0,0,0.496914,137.244,136.449)">
                    <rect x="21.78" y="181.783" width="104.813" height="28.523" style="fill:rgb(122,201,253);"/>
                </g>
                <g id="Background7" serif:id="Background" transform="matrix(0.843795,0,0,0.496914,137.244,150.622)">
                    <rect x="21.78" y="181.783" width="104.813" height="28.523" style="fill:rgb(158,158,158);"/>
                </g>
                <g id="Background8" serif:id="Background" transform="matrix(0.843795,0,0,0.496914,137.244,207.3)">
                    <rect x="21.78" y="181.783" width="104.813" height="28.523" style="fill:rgb(158,158,158);"/>
                </g>
                <g id="Background9" serif:id="Background" transform="matrix(0.843795,0,0,0.496914,137.244,193.134)">
                    <rect x="21.78" y="181.783" width="104.813" height="28.523" style="fill:rgb(122,201,253);"/>
                </g>
                <g id="Background10" serif:id="Background" transform="matrix(0.843795,0,0,0.496914,225.685,193.134)">
                    <rect x="21.78" y="181.783" width="104.813" height="28.523" style="fill:rgb(122,201,253);"/>
                </g>
                <g id="Background11" serif:id="Background" transform="matrix(0.843795,0,0,0.496914,137.244,263.99)">
                    <rect x="21.78" y="181.783" width="104.813" height="28.523" style="fill:rgb(158,158,158);"/>
                </g>
                <g id="Background12" serif:id="Background" transform="matrix(0.843795,0,0,0.496914,137.244,249.806)">
                    <rect x="21.78" y="181.783" width="104.813" height="28.523" style="fill:rgb(122,201,253);"/>
                </g>
                <g id="Background13" serif:id="Background" transform="matrix(0.843795,0,0,0.496914,225.685,136.449)">
                    <rect x="21.78" y="181.783" width="104.813" height="28.523" style="fill:rgb(122,201,253);"/>
                </g>
                <g id="Background14" serif:id="Background" transform="matrix(0.843795,0,0,0.496914,225.685,150.622)">
                    <rect x="21.78" y="181.783" width="104.813" height="28.523" style="fill:rgb(158,158,158);"/>
                </g>
                <g id="Background15" serif:id="Background" transform="matrix(0.843795,0,0,0.496914,225.685,207.3)">
                    <rect x="21.78" y="181.783" width="104.813" height="28.523" style="fill:rgb(158,158,158);"/>
                </g>
                <g id="Background16" serif:id="Background" transform="matrix(0.843795,0,0,0.496914,225.685,263.99)">
                    <rect x="21.78" y="181.783" width="104.813" height="28.523" style="fill:rgb(158,158,158);"/>
                </g>
                <g id="Background17" serif:id="Background" transform="matrix(0.843795,0,0,0.496914,225.685,249.827)">
                    <rect x="21.78" y="181.783" width="104.813" height="28.523" style="fill:rgb(122,201,253);"/>
                </g>
                <g id="Background18" serif:id="Background" transform="matrix(0.843795,0,0,0.496914,314.126,136.449)">
                    <rect x="21.78" y="181.783" width="104.813" height="28.523" style="fill:rgb(122,201,253);"/>
                </g>
                <g id="Background19" serif:id="Background" transform="matrix(0.843795,0,0,0.496914,314.126,150.622)">
                    <rect x="21.78" y="181.783" width="104.813" height="28.523" style="fill:rgb(158,158,158);"/>
                </g>
                <g id="Background20" serif:id="Background" transform="matrix(0.843795,0,0,0.496914,314.126,207.3)">
                    <rect x="21.78" y="181.783" width="104.813" height="28.523" style="fill:rgb(158,158,158);"/>
                </g>
                <g id="Background21" serif:id="Background" transform="matrix(0.843795,0,0,0.496914,314.123,193.127)">
                    <rect x="21.78" y="181.783" width="104.813" height="28.523" style="fill:rgb(122,201,253);"/>
                </g>
                <g id="Background22" serif:id="Background" transform="matrix(0.843795,0,0,0.496914,314.126,263.99)">
                    <rect x="21.78" y="181.783" width="104.813" height="28.523" style="fill:rgb(158,158,158);"/>
                </g>
                <g id="Background23" serif:id="Background" transform="matrix(0.843795,0,0,0.496914,314.126,249.827)">
                    <rect x="21.78" y="181.783" width="104.813" height="28.523" style="fill:rgb(122,201,253);"/>
                </g>
                <g id="Background24" serif:id="Background" transform="matrix(0.843795,0,0,0.496914,402.567,136.449)">
                    <rect x="21.78" y="181.783" width="104.813" height="28.523" style="fill:rgb(122,201,253);"/>
                </g>
                <g id="Background25" serif:id="Background" transform="matrix(0.843795,0,0,0.496914,402.567,150.622)">
                    <rect x="21.78" y="181.783" width="104.813" height="28.523" style="fill:rgb(158,158,158);"/>
                </g>
                <g id="Background26" serif:id="Background" transform="matrix(0.843795,0,0,0.496914,402.567,207.3)">
                    <rect x="21.78" y="181.783" width="104.813" height="28.523" style="fill:rgb(158,158,158);"/>
                </g>
                <g id="Background27" serif:id="Background" transform="matrix(0.843795,0,0,0.496914,402.564,193.127)">
                    <rect x="21.78" y="181.783" width="104.813" height="28.523" style="fill:rgb(122,201,253);"/>
                </g>
                <g id="Background28" serif:id="Background" transform="matrix(0.843795,0,0,0.496914,402.567,263.99)">
                    <rect x="21.78" y="181.783" width="104.813" height="28.523" style="fill:rgb(158,158,158);"/>
                </g>
                <g id="Background29" serif:id="Background" transform="matrix(0.843795,0,0,0.496914,402.567,249.827)">
                    <rect x="21.78" y="181.783" width="104.813" height="28.523" style="fill:rgb(122,201,253);"/>
                </g>
                <g id="Background30" serif:id="Background" transform="matrix(0.843795,0,0,0.496914,491.008,136.449)">
                    <rect x="21.78" y="181.783" width="104.813" height="28.523" style="fill:rgb(122,201,253);"/>
                </g>
                <g id="Background31" serif:id="Background" transform="matrix(0.843795,0,0,0.496914,491.008,150.622)">
                    <rect x="21.78" y="181.783" width="104.813" height="28.523" style="fill:rgb(158,158,158);"/>
                </g>
                <g id="Background32" serif:id="Background" transform="matrix(0.843795,0,0,0.496914,491.008,207.3)">
                    <rect x="21.78" y="181.783" width="104.813" height="28.523" style="fill:rgb(158,158,158);"/>
                </g>
                <g id="Background33" serif:id="Background" transform="matrix(0.843795,0,0,0.496914,491.008,193.134)">
                    <rect x="21.78" y="181.783" width="104.813" height="28.523" style="fill:rgb(122,201,253);"/>
                </g>
                <g id="Background34" serif:id="Background" transform="matrix(0.843795,0,0,0.496914,491.008,263.99)">
                    <rect x="21.78" y="181.783" width="104.813" height="28.523" style="fill:rgb(158,158,158);"/>
                </g>
                <g id="Background35" serif:id="Background" transform="matrix(0.843795,0,0,0.496914,491.008,249.827)">
                    <rect x="21.78" y="181.783" width="104.813" height="28.523" style="fill:rgb(122,201,253);"/>
                </g>
                <g id="Background36" serif:id="Background" transform="matrix(0.843795,0,0,0.496914,579.449,136.449)">
                    <rect x="21.78" y="181.783" width="104.813" height="28.523" style="fill:rgb(122,201,253);"/>
                </g>
                <g id="Background37" serif:id="Background" transform="matrix(0.843795,0,0,0.496914,579.449,150.622)">
                    <rect x="21.78" y="181.783" width="104.813" height="28.523" style="fill:rgb(158,158,158);"/>
                </g>
                <g id="Background38" serif:id="Background" transform="matrix(0.843795,0,0,0.496914,579.449,207.3)">
                    <rect x="21.78" y="181.783" width="104.813" height="28.523" style="fill:rgb(158,158,158);"/>
                </g>
                <g id="Background39" serif:id="Background" transform="matrix(0.843795,0,0,0.496914,579.449,193.134)">
                    <rect x="21.78" y="181.783" width="104.813" height="28.523" style="fill:rgb(122,201,253);"/>
                </g>
                <g id="Background40" serif:id="Background" transform="matrix(0.843795,0,0,0.496914,579.449,263.99)">
                    <rect x="21.78" y="181.783" width="104.813" height="28.523" style="fill:rgb(158,158,158);"/>
                </g>
                <g id="Background41" serif:id="Background" transform="matrix(0.843795,0,0,0.496914,579.449,249.827)">
                    <rect x="21.78" y="181.783" width="104.813" height="28.523" style="fill:rgb(122,201,253);"/>
                </g>
                <g id="Background42" serif:id="Background" transform="matrix(0.843795,0,0,0.496914,667.889,136.449)">
                    <rect x="21.78" y="181.783" width="104.813" height="28.523" style="fill:rgb(122,201,253);"/>
                </g>
                <g id="Background43" serif:id="Background" transform="matrix(0.843795,0,0,0.496914,667.889,150.622)">
                    <rect x="21.78" y="181.783" width="104.813" height="28.523" style="fill:rgb(158,158,158);"/>
                </g>
                <g id="Background44" serif:id="Background" transform="matrix(0.843795,0,0,0.496914,667.889,207.3)">
                    <rect x="21.78" y="181.783" width="104.813" height="28.523" style="fill:rgb(158,158,158);"/>
                </g>
                <g id="Background45" serif:id="Background" transform="matrix(0.843795,0,0,0.496914,667.889,193.134)">
                    <rect x="21.78" y="181.783" width="104.813" height="28.523" style="fill:rgb(255,61,0);"/>
                </g>
                <g id="Background46" serif:id="Background" transform="matrix(0.84374,0,0,0.496914,667.891,263.99)">
                    <rect x="21.78" y="181.783" width="104.813" height="28.523" style="fill:rgb(158,158,158);"/>
                </g>
                <g id="Background47" serif:id="Background" transform="matrix(0.84374,0,0,0.496914,667.891,249.827)">
                    <rect x="21.78" y="181.783" width="104.813" height="28.523" style="fill:rgb(255,159,0);"/>
                </g>
                <g id="Backgrounds">
                </g>
            </g>
            <g id="Labels">
            </g>
        </g>
    </g>
</svg>
